<?xml version="1.0" encoding="UTF-8"?>
<svg id="_圖層_1" data-name="圖層 1" xmlns="http://www.w3.org/2000/svg" viewBox="0 0 2900 1850">
  <defs>
    <style>
      .cls-1 {
        letter-spacing: -.05em;
      }

      .cls-2 {
        letter-spacing: -.05em;
      }

      .cls-3 {
        letter-spacing: -.02em;
      }

      .cls-4 {
        letter-spacing: -.03em;
      }

      .cls-5 {
        letter-spacing: -.07em;
      }

      .cls-6 {
        letter-spacing: -.02em;
      }

      .cls-7 {
        letter-spacing: 0em;
      }

      .cls-8 {
        letter-spacing: -.04em;
      }

      .cls-9 {
        letter-spacing: 0em;
      }

      .cls-10 {
        fill: #303840;
      }

      .cls-11 {
        letter-spacing: -.04em;
      }

      .cls-12 {
        letter-spacing: -.02em;
      }

      .cls-13 {
        letter-spacing: -.05em;
      }

      .cls-14 {
        letter-spacing: -.03em;
      }

      .cls-15, .cls-16, .cls-17, .cls-18 {
        fill: #ccc6bd;
      }

      .cls-16 {
        font-family: Montserrat-Regular, Montserrat;
        font-size: 150px;
      }

      .cls-19 {
        letter-spacing: -.03em;
      }

      .cls-20 {
        letter-spacing: 0em;
      }

      .cls-21 {
        letter-spacing: -.04em;
      }

      .cls-22 {
        letter-spacing: 0em;
      }

      .cls-23 {
        letter-spacing: -.01em;
      }

      .cls-24 {
        letter-spacing: 0em;
      }

      .cls-17 {
        font-family: Montserrat-Light, Montserrat;
        font-weight: 300;
      }

      .cls-17, .cls-18 {
        font-size: 50px;
      }

      .cls-25 {
        letter-spacing: 0em;
      }

      .cls-26 {
        letter-spacing: 0em;
      }

      .cls-27 {
        fill: none;
        stroke: #ccc6bd;
        stroke-linecap: round;
        stroke-linejoin: round;
        stroke-width: 2.5px;
      }

      .cls-28 {
        letter-spacing: 0em;
      }

      .cls-29 {
        letter-spacing: 0em;
      }

      .cls-18 {
        font-family: Montserrat-ExtraLightItalic, Montserrat;
        font-style: italic;
        font-weight: 200;
      }
    </style>
  </defs>
  <rect class="cls-10" width="2900" height="1850"/>
  <line class="cls-27" x1="1950" y1="925" x2="950" y2="925"/>
  <line class="cls-27" x1="1450" y1="800" x2="1450" y2="1050"/>
  <g>
    <path class="cls-15" d="M1625,925c-150,6.9-161.19,12.5-175,87.5-13.81-75-25-80.6-175-87.5,150-6.9,161.19-12.5,175-87.5,13.81,75,25,80.6,175,87.5Z"/>
    <path class="cls-27" d="M1625,925c-150,6.9-161.19,12.5-175,87.5-13.81-75-25-80.6-175-87.5,150-6.9,161.19-12.5,175-87.5,13.81,75,25,80.6,175,87.5Z"/>
  </g>
  <text class="cls-17" transform="translate(110.45 142.5)"><tspan class="cls-4" x="0" y="0">A</tspan><tspan class="cls-19" x="33.7" y="0">X</tspan><tspan x="64.3" y="0">TERIA</tspan></text>
  <text class="cls-16" transform="translate(833.32 1402.5)"><tspan class="cls-5" x="0" y="0">W</tspan><tspan class="cls-14" x="156.28" y="0">o</tspan><tspan class="cls-11" x="245.62" y="0">r</tspan><tspan class="cls-25" x="299.16" y="0">k </tspan><tspan class="cls-21" x="428.61" y="0">I</tspan><tspan x="467.44" y="0">n </tspan><tspan class="cls-2" x="608.29" y="0">P</tspan><tspan class="cls-13" x="708.32" y="0">r</tspan><tspan class="cls-3" x="760.53" y="0">o</tspan><tspan class="cls-8" x="851.76" y="0">g</tspan><tspan class="cls-1" x="948.16" y="0">r</tspan><tspan class="cls-6" x="1000.62" y="0">e</tspan><tspan class="cls-9" x="1088.17" y="0">s</tspan><tspan class="cls-29" x="1160.02" y="0">s</tspan></text>
  <text class="cls-18" transform="translate(830.91 585.1)"><tspan x="0" y="0">Be</tspan><tspan class="cls-26" x="67.15" y="0">f</tspan><tspan x="82.55" y="0">o</tspan><tspan class="cls-23" x="113.25" y="0">r</tspan><tspan x="131.95" y="0">e t</tspan><tspan class="cls-20" x="193.85" y="0">h</tspan><tspan x="227.4" y="0">e night spa</tspan><tspan class="cls-24" x="506.44" y="0">r</tspan><tspan x="525.39" y="0">kles, t</tspan><tspan class="cls-20" x="661.29" y="0">h</tspan><tspan x="694.84" y="0">e s</tspan><tspan class="cls-12" x="760.64" y="0">t</tspan><tspan x="779.24" y="0">a</tspan><tspan class="cls-22" x="812.89" y="0">r</tspan><tspan class="cls-28" x="832.04" y="0">s fi</tspan><tspan class="cls-20" x="900.83" y="0">n</tspan><tspan x="934.38" y="0">d t</tspan><tspan class="cls-7" x="1000.28" y="0">h</tspan><tspan x="1033.83" y="0">eir path.</tspan></text>
</svg>